# xmcd
# 
# Track frame offsets:
#     183
#     23583
#     43358
#     63308
#     77733
#     103720
#     118383
#     140733
#     157383
#     182233
#     197633
#     215358
#     241008
#     257645
# 
# Disc length: 3718
# 
# Revision: 1
# Processed by: cddbd v1.5.2PL0 Copyright (c) Steve Scherf et al.
# Submitted via: fre:ac v1.0.27
# 
DISCID=cf0e840e
DTITLE=Lucio Dalla - Superbest
DYEAR=1996
DGENRE=Country
TTITLE0=Caruso
TTITLE1=L'anno che verrà
TTITLE2=Il motore del 2000
TTITLE3=Piazza Grande
TTITLE4=Disperato Erotico Stomp
TTITLE5=Il cielo
TTITLE6=Se io fossi un angelo
TTITLE7=4/3/1943
TTITLE8=Nuvolari
TTITLE9=Un uomo come me
TTITLE10=La casa in riva al mare
TTITLE11=L'ultima luna
TTITLE12=Anna e Marco
TTITLE13=Telefonami tra vent'anni
EXTD=
EXTT0=
EXTT1=
EXTT2=
EXTT3=
EXTT4=
EXTT5=
EXTT6=
EXTT7=
EXTT8=
EXTT9=
EXTT10=
EXTT11=
EXTT12=
EXTT13=
PLAYORDER=
